<svg width="111" height="110" viewBox="0 0 111 110" fill="none" xmlns="http://www.w3.org/2000/svg">
<circle cx="9.54839" cy="37.0953" r="9.54839" fill="black"/>
<circle cx="38.1939" cy="37.0953" r="9.04839" stroke="black"/>
<circle cx="73.9996" cy="90.8062" r="9.04839" stroke="black"/>
<circle cx="95.4839" cy="90.8062" r="9.54839" fill="black"/>
<rect x="57.29" y="9.64453" width="53.7097" height="53.7097" rx="4" fill="black"/>
<line x1="13.1289" y1="37.7891" x2="28.645" y2="37.7891" stroke="black"/>
<line x1="47.7422" y1="37.7891" x2="63.2583" y2="37.7891" stroke="black"/>
<line x1="84.6514" y1="59.1836" x2="84.6514" y2="74.6997" stroke="black"/>
<path d="M84.7419 74.0977C84.7419 74.0977 79.9677 74.0977 77.5806 75.888C75.1935 77.6783 74 81.8557 74 81.8557" stroke="black"/>
<path d="M84.7415 74.0977C84.7415 74.0977 89.5157 74.0977 91.9028 75.888C94.2898 77.6783 95.4834 81.8557 95.4834 81.8557" stroke="black"/>
<path d="M65 92L70.6142 86.6446" stroke="black"/>
<path d="M71.6133 99.5116L77.1591 93.9661" stroke="black"/>
<line x1="66.4853" y1="95.2285" x2="76.0337" y2="85.6801" stroke="black"/>
<line x1="68.6464" y1="98.0019" x2="77.0013" y2="89.6471" stroke="black"/>
</svg>
