<svg width="110" height="110" viewBox="0 0 110 110" fill="none" xmlns="http://www.w3.org/2000/svg">
<g clip-path="url(#clip0_2014_399)">
<path d="M55.3038 21.8784V88.4254" stroke="black"/>
<path d="M22.0304 55.1519H88.5774" stroke="black"/>
<path d="M54.6962 64.116C59.563 64.116 63.5083 60.1707 63.5083 55.3039C63.5083 50.437 59.563 46.4917 54.6962 46.4917C49.8294 46.4917 45.884 50.437 45.884 55.3039C45.884 60.1707 49.8294 64.116 54.6962 64.116Z" stroke="black"/>
<path d="M0.303833 12.7625L23.3978 30.3868" stroke="black"/>
<path d="M2.12708 8.5083L27.6519 27.9558" stroke="black"/>
<path d="M8.81213 2.12695L31.6022 19.4474" stroke="black"/>
<path d="M4.86194 5.46973L29.7791 24.0056" stroke="black"/>
<path d="M13.6741 0.607666L31.9061 13.9778" stroke="black"/>
<path d="M22.4862 1.51929L28.5636 5.77343" stroke="black" stroke-width="0.5"/>
<path d="M0.607788 18.8398L18.2321 31.9061" stroke="black"/>
<path d="M3.64636 26.7402L9.41984 30.9944" stroke="black" stroke-width="0.5"/>
<path d="M77.79 90.5525L100.884 108.177" stroke="black"/>
<path d="M79.6133 86.2983L105.138 105.746" stroke="black"/>
<path d="M86.2983 79.9172L109.088 97.2377" stroke="black"/>
<path d="M82.348 83.2598L107.265 101.796" stroke="black"/>
<path d="M91.1602 78.3977L109.392 91.7679" stroke="black"/>
<path d="M99.9724 79.3093L106.05 83.5635" stroke="black" stroke-width="0.5"/>
<path d="M78.0939 96.6299L95.7182 109.696" stroke="black"/>
<path d="M81.1326 104.53L86.906 108.784" stroke="black" stroke-width="0.5"/>
<path d="M93.895 32.2099C102.79 32.2099 110 24.9995 110 16.105C110 7.21044 102.79 0 93.895 0C85.0005 0 77.79 7.21044 77.79 16.105C77.79 24.9995 85.0005 32.2099 93.895 32.2099Z" fill="black"/>
<path d="M16.105 110C24.9995 110 32.2099 102.79 32.2099 93.895C32.2099 85.0005 24.9995 77.79 16.105 77.79C7.21044 77.79 0 85.0005 0 93.895C0 102.79 7.21044 110 16.105 110Z" fill="black"/>
</g>
<defs>
<clipPath id="clip0_2014_399">
<rect width="110" height="110" fill="white"/>
</clipPath>
</defs>
</svg>
