<svg width="110" height="89" viewBox="0 0 110 89" fill="none" xmlns="http://www.w3.org/2000/svg">
<g clip-path="url(#clip0_2014_534)">
<path d="M94.0322 59.9268L109.409 71.7934" stroke="black"/>
<path d="M93.7366 65.5632L106.747 75.3532" stroke="black"/>
<path d="M93.4409 71.2L103.495 78.0233" stroke="black"/>
<path d="M88.4139 72.6833L100.538 81.88" stroke="black"/>
<path d="M80.4301 72.3867L96.9892 84.5501" stroke="black"/>
<path d="M73.3334 72.3867L94.0323 87.8134" stroke="black"/>
<path d="M66.5322 72.3867L87.2312 88.1101" stroke="black"/>
<path d="M65.9409 78.0234L80.1345 88.4068" stroke="black"/>
<path d="M65.9409 83.3633L72.4463 88.1099" stroke="black" stroke-width="0.5"/>
<path d="M0.295654 15.7233L16.5591 0.296631H43.4677V15.7233H15.3763V43.3133H0.295654V15.7233Z" stroke="black"/>
<path d="M93.7366 0.593262H70.0807L10.9409 88.7033H34.8925L93.7366 0.593262Z" fill="black"/>
<path d="M102.903 44.7966L109.409 49.5433" stroke="black" stroke-width="0.5"/>
<path d="M95.2151 44.7966L109.409 55.18" stroke="black"/>
<path d="M93.7366 48.6533L109.704 61.1133" stroke="black"/>
<path d="M94.0322 54.8833L109.704 66.1566" stroke="black"/>
</g>
<defs>
<clipPath id="clip0_2014_534">
<rect width="110" height="89" fill="white"/>
</clipPath>
</defs>
</svg>
