<svg width="1441" height="801" viewBox="0 0 1441 801" fill="none" xmlns="http://www.w3.org/2000/svg">
<path fill-rule="evenodd" clip-rule="evenodd" d="M1439.27 800.588C1439.41 799.728 1439.59 798.876 1439.77 798.031C1440.15 796.198 1440.53 794.395 1440.51 792.592C1440.57 694.034 1440.57 595.475 1440.57 496.916L1440.57 8.07578C1440.57 4.4996 1440.57 2.67087 1439.66 1.73571C1438.7 0.757059 1436.74 0.757059 1432.73 0.757059H9.37587C8.98621 0.757059 8.56483 0.714791 8.14394 0.672572C7.21468 0.579361 6.2878 0.486388 5.71 0.849066C3.8724 1.99497 2.07211 3.43362 0.915441 5.1232C0.438733 5.82793 0.558183 6.85579 0.677726 7.88445C0.731279 8.34527 0.784851 8.80625 0.784851 9.23841C0.719555 270.471 0.644936 531.695 0.570312 792.927C0.570312 800.262 0.887458 800.588 9.17999 800.588H1439.27ZM887.713 5.27375V796.423H5.20628C5.50478 676.153 34.1882 561.881 92.8515 454.099C179.573 294.785 311.181 174.022 486.723 92.5129C612.175 34.2559 746.152 6.01817 887.713 5.27375ZM1257.99 133.447C1374.82 229.628 1432.85 350.148 1436.63 492.458H892.666V5.08974C1032.31 7.38154 1155.1 48.726 1257.99 133.447ZM803.836 4.52934C594.806 25.1472 413.798 99.7897 264.252 232.647C114.819 365.413 29.8693 526.868 4.98242 714.018V705.172C4.98242 473.646 4.98242 242.111 4.99174 10.5851C4.99174 7.3064 4.79759 5.78646 5.46402 5.09006C6.16791 4.35452 7.83183 4.5377 11.6985 4.5377C273.951 4.52934 536.195 4.52934 798.448 4.52934H803.836ZM1102.03 796.13V496.857H1435.43C1440.29 651.479 1289.63 797.995 1102.03 796.13ZM1276.82 143.886C1188.28 65.4796 1081.47 19.8024 958.334 4.77189H1436.07V429.525C1417.91 317.821 1365.55 222.46 1276.82 143.886ZM1097 795.963C988.855 798.547 890.259 711.601 893.151 613.112H1097V795.963ZM1436.2 549.962V796.465H1162.34C1310.56 764.814 1402.35 681.774 1436.2 549.962ZM923.084 536.646C947.645 511.185 979.089 498.288 1017.15 496.774V608.671H892.535C892.974 581.253 903.225 557.231 923.084 536.646ZM892.731 653.403C915.846 728.187 968.828 775.621 1052.57 796.398H892.731V653.403ZM1021.83 497.518C1061.62 495.946 1097.95 529.997 1096.78 564.474H1021.83V497.518ZM984.322 496.958C938.242 510.341 908.225 536.847 892.545 576.979V496.958H984.322ZM1096.37 568.999C1100.87 585.861 1076.29 608.403 1052.64 608.52V568.999H1096.37ZM1048.55 497.092H1097.17V539.707C1086.98 520.026 1071.19 505.623 1048.55 497.092ZM1047.85 585.268V608.403C1034.19 607.951 1022.46 597.504 1022.34 585.268H1047.85ZM1071.65 608.729C1083.09 603.61 1090.89 596.618 1097.13 587.819V608.729H1071.65ZM1022.57 581.085C1022.66 575.08 1027.22 570.689 1035.53 568.999V581.085H1022.57ZM1030.33 608.788C1027.25 605.908 1024.21 603.07 1021.89 600.9V608.779C1024.84 608.786 1027.61 608.787 1030.33 608.788ZM1038.24 580.575H1048.5C1047.06 573.069 1043.34 568.949 1038.24 568.865V580.575Z" fill="white"/>
</svg>
