<svg width="110" height="103" viewBox="0 0 110 103" fill="none" xmlns="http://www.w3.org/2000/svg">
<g clip-path="url(#clip0_2014_459)">
<path d="M87.5342 0.598877L79.72 5.98841" stroke="black" stroke-width="0.5"/>
<path d="M76.4139 16.4681L93.8456 3.2937" stroke="black"/>
<path d="M72.8074 26.0495L93.8456 10.4797" stroke="black"/>
<path d="M68.9003 35.9303L90.5396 19.7617" stroke="black"/>
<path d="M65.2937 46.1104L87.2336 29.6423" stroke="black"/>
<path d="M109.775 0H94.7473V101.802H109.775V0Z" fill="black"/>
<path d="M74.3635 22.2852L62.9994 13.4319L0.422262 93.1538L11.7864 102.007L74.3635 22.2852Z" stroke="black"/>
<path d="M61.9877 55.9913L83.3265 40.1221" stroke="black"/>
<path d="M58.3809 66.1714L79.72 49.7034" stroke="black"/>
<path d="M54.4738 76.0524L75.8129 59.8838" stroke="black"/>
<path d="M50.8672 85.6338L72.2063 69.7646" stroke="black"/>
<path d="M49.9656 94.0175L68.9003 79.9448" stroke="black"/>
<path d="M56.277 96.4129L65.2937 89.8257" stroke="black" stroke-width="0.5"/>
<path d="M24.7196 43.1162C31.8571 43.1162 37.6431 37.3519 37.6431 30.2412C37.6431 23.1305 31.8571 17.3662 24.7196 17.3662C17.5822 17.3662 11.7961 23.1305 11.7961 30.2412C11.7961 37.3519 17.5822 43.1162 24.7196 43.1162Z" fill="black"/>
</g>
<defs>
<clipPath id="clip0_2014_459">
<rect width="110" height="103" fill="white"/>
</clipPath>
</defs>
</svg>
